<?xml version="1.0" encoding="UTF-8"?> <svg xmlns="http://www.w3.org/2000/svg" xmlns:xlink="http://www.w3.org/1999/xlink" id="Layer_1" data-name="Layer 1" viewBox="0 0 496.26 357.84"><defs><style>.cls-1{mask:url(#mask);filter:url(#luminosity-noclip-3);}.cls-2,.cls-4{mix-blend-mode:multiply;}.cls-2{fill:url(#linear-gradient);}.cls-3{mask:url(#mask-2);filter:url(#luminosity-noclip-4);}.cls-4{fill:url(#linear-gradient-2);}.cls-5,.cls-7{fill:#f0f2f5;}.cls-5{opacity:0.5;}.cls-6{fill:#fff;}.cls-8{fill:#b3b3b3;}.cls-9{fill:#d9d9d9;}.cls-10{fill:#5ac8ad;}.cls-11{fill:#549adb;}.cls-12{fill:#cb9273;}.cls-13{fill:#a1dcff;}.cls-14{fill:#c13c13;}.cls-15{fill:#d07921;}.cls-16{fill:#63bb73;}.cls-17{fill:url(#linear-gradient-3);}.cls-18{fill:url(#linear-gradient-4);}.cls-19{fill:url(#linear-gradient-5);}.cls-20{mask:url(#mask-3);}.cls-21,.cls-23{opacity:0.31;}.cls-21{fill:url(#linear-gradient-6);}.cls-22{mask:url(#mask-4);}.cls-23{fill:url(#linear-gradient-7);}.cls-24{fill:url(#linear-gradient-8);}.cls-25{fill:url(#linear-gradient-9);}.cls-26{fill:url(#linear-gradient-10);}.cls-27{fill:#f2dad4;}.cls-28{fill:url(#linear-gradient-11);}.cls-29{fill:url(#linear-gradient-12);}.cls-30{fill:#1c2b6b;}.cls-31{fill:url(#linear-gradient-13);}.cls-32{fill:url(#linear-gradient-14);}.cls-33{fill:url(#linear-gradient-15);}.cls-34{fill:url(#linear-gradient-16);}.cls-35{fill:url(#linear-gradient-17);}.cls-36{fill:url(#linear-gradient-18);}.cls-37{fill:url(#linear-gradient-19);}.cls-38{filter:url(#luminosity-noclip-2);}.cls-39{filter:url(#luminosity-noclip);}</style><filter id="luminosity-noclip" x="5.75" y="-9951.7" width="168.02" height="32766" color-interpolation-filters="sRGB"><feFlood flood-color="#fff" result="bg"></feFlood><feBlend in="SourceGraphic" in2="bg"></feBlend></filter><mask id="mask" x="5.75" y="-9951.7" width="168.02" height="32766" maskUnits="userSpaceOnUse"><g class="cls-39"></g></mask><linearGradient id="linear-gradient" x1="-9265.99" y1="319.29" x2="-9104" y2="351.75" gradientTransform="matrix(-1, 0, 0, 1, -9048.38, 0)" gradientUnits="userSpaceOnUse"><stop offset="0.08"></stop><stop offset="0.82" stop-color="#fff"></stop></linearGradient><filter id="luminosity-noclip-2" x="182.71" y="-9951.7" width="195.86" height="32766" color-interpolation-filters="sRGB"><feFlood flood-color="#fff" result="bg"></feFlood><feBlend in="SourceGraphic" in2="bg"></feBlend></filter><mask id="mask-2" x="182.71" y="-9951.7" width="195.86" height="32766" maskUnits="userSpaceOnUse"><g class="cls-38"></g></mask><linearGradient id="linear-gradient-2" x1="-9414.45" y1="325.99" x2="-9357.17" y2="333.68" gradientTransform="matrix(-1, 0, 0, 1, -9048.38, 0)" gradientUnits="userSpaceOnUse"><stop offset="0.21"></stop><stop offset="0.82" stop-color="#fff"></stop></linearGradient><linearGradient id="linear-gradient-3" x1="-12346.45" y1="-2816.43" x2="-12399.62" y2="-2754.96" gradientTransform="matrix(-0.91, -0.41, -0.41, 0.91, -12027.2, -2369.71)" gradientUnits="userSpaceOnUse"><stop offset="0" stop-color="#4e9cff"></stop><stop offset="1" stop-color="#176ad4"></stop></linearGradient><linearGradient id="linear-gradient-4" x1="-12453.8" y1="-2640.36" x2="-12404.08" y2="-2738.45" gradientTransform="matrix(-0.91, -0.41, -0.41, 0.91, -12027.2, -2369.71)" gradientUnits="userSpaceOnUse"><stop offset="0" stop-color="#f6fffc"></stop><stop offset="1" stop-color="#b6b8bd"></stop></linearGradient><linearGradient id="linear-gradient-5" x1="-12477.92" y1="-2741.37" x2="-12366" y2="-2741.37" gradientTransform="matrix(-0.91, -0.41, -0.41, 0.91, -12027.2, -2369.71)" gradientUnits="userSpaceOnUse"><stop offset="0" stop-color="#8fecff"></stop><stop offset="1" stop-color="#36deff"></stop></linearGradient><filter id="luminosity-noclip-3" x="5.75" y="329.27" width="168.02" height="28.57" color-interpolation-filters="sRGB"><feFlood flood-color="#fff" result="bg"></feFlood><feBlend in="SourceGraphic" in2="bg"></feBlend></filter><mask id="mask-3" x="5.75" y="329.27" width="168.02" height="28.57" maskUnits="userSpaceOnUse"><g class="cls-1"><path class="cls-2" d="M161.52,329.27c-13.29.22-64.45,4.11-71.91,6.26S8.75,352,6.18,353.87s6.7,4.56,18,3.85,17.24-1.64,19.66-2.6,21.1-3.67,23.8-3.81,11.6-1,12.92-2.14,4.75-3.42,6.32-3.42,49.08-4.84,60.07-5,20.87-.5,25.9-5.19S161.52,329.27,161.52,329.27Z"></path></g></mask><linearGradient id="linear-gradient-6" x1="-9265.99" y1="319.29" x2="-9104" y2="351.75" gradientTransform="matrix(-1, 0, 0, 1, -9048.38, 0)" gradientUnits="userSpaceOnUse"><stop offset="0.08" stop-color="#f0f2f5"></stop><stop offset="0.82" stop-color="#7a869b"></stop></linearGradient><filter id="luminosity-noclip-4" x="182.71" y="329.27" width="195.86" height="20.72" color-interpolation-filters="sRGB"><feFlood flood-color="#fff" result="bg"></feFlood><feBlend in="SourceGraphic" in2="bg"></feBlend></filter><mask id="mask-4" x="182.71" y="329.27" width="195.86" height="20.72" maskUnits="userSpaceOnUse"><g class="cls-3"><path class="cls-4" d="M340.36,329.27c12.52.32,37.56-1.28,38.21,4.82s-91,16.9-115,15.82-80.89-13.22-80.89-13.22Z"></path></g></mask><linearGradient id="linear-gradient-7" x1="-9414.45" y1="325.99" x2="-9357.17" y2="333.68" gradientTransform="matrix(-1, 0, 0, 1, -9048.38, 0)" gradientUnits="userSpaceOnUse"><stop offset="0.21" stop-color="#f0f2f5"></stop><stop offset="0.82" stop-color="#7a869b"></stop></linearGradient><linearGradient id="linear-gradient-8" x1="-9089.64" y1="316.67" x2="-9146.27" y2="353.02" gradientTransform="matrix(-1, 0, 0, 1, -9048.38, 0)" gradientUnits="userSpaceOnUse"><stop offset="0" stop-color="#1c2b6b"></stop><stop offset="0.12" stop-color="#080c1f"></stop><stop offset="0.59" stop-color="#080c1f"></stop><stop offset="0.9" stop-color="#1c2b6b"></stop></linearGradient><linearGradient id="linear-gradient-9" x1="-9146.02" y1="323.93" x2="-9102.6" y2="323.93" gradientTransform="matrix(-1, 0, 0, 1, -9048.38, 0)" gradientUnits="userSpaceOnUse"><stop offset="0" stop-color="#f2dad4"></stop><stop offset="0.94" stop-color="#f2c9a5"></stop></linearGradient><linearGradient id="linear-gradient-10" x1="-9078.89" y1="325.4" x2="-9107.62" y2="384.5" gradientTransform="matrix(-1, 0, 0, 1, -9048.38, 0)" gradientUnits="userSpaceOnUse"><stop offset="0" stop-color="#1c2b6b"></stop><stop offset="0.23" stop-color="#19265f"></stop><stop offset="0.65" stop-color="#10193e"></stop><stop offset="1" stop-color="#080c1f"></stop></linearGradient><linearGradient id="linear-gradient-11" x1="-9139.45" y1="247.06" x2="-9197.07" y2="284.05" xlink:href="#linear-gradient-10"></linearGradient><linearGradient id="linear-gradient-12" x1="-9254.58" y1="122.68" x2="-9331.78" y2="250.56" gradientTransform="matrix(-1, 0, 0, 1, -9048.38, 0)" gradientUnits="userSpaceOnUse"><stop offset="0.51" stop-color="#8fecff"></stop><stop offset="1" stop-color="#0fd8ff"></stop></linearGradient><linearGradient id="linear-gradient-13" x1="-9270.89" y1="211.61" x2="-9160.72" y2="211.61" gradientTransform="matrix(-1, 0, 0, 1, -9048.38, 0)" gradientUnits="userSpaceOnUse"><stop offset="0" stop-color="#26d8ef"></stop><stop offset="1" stop-color="#005aff"></stop></linearGradient><linearGradient id="linear-gradient-14" x1="-9418.32" y1="238.63" x2="-9187.03" y2="238.63" xlink:href="#linear-gradient-13"></linearGradient><linearGradient id="linear-gradient-15" x1="-9277.78" y1="181.46" x2="-9223.22" y2="207.28" gradientTransform="matrix(-1, 0, 0, 1, -9048.38, 0)" gradientUnits="userSpaceOnUse"><stop offset="0.21" stop-color="#f2dad4"></stop><stop offset="0.42" stop-color="#f2c9a5"></stop><stop offset="0.89" stop-color="#f2d7cd"></stop></linearGradient><linearGradient id="linear-gradient-16" x1="-9327.04" y1="185.93" x2="-9264.43" y2="115.98" gradientTransform="matrix(-1, 0, 0, 1, -9048.38, 0)" gradientUnits="userSpaceOnUse"><stop offset="0" stop-color="#ffac00"></stop><stop offset="0.83" stop-color="#ff5e00"></stop></linearGradient><linearGradient id="linear-gradient-17" x1="-9292.63" y1="211.36" x2="-9299.92" y2="160.73" gradientTransform="matrix(-1, 0, 0, 1, -9048.38, 0)" gradientUnits="userSpaceOnUse"><stop offset="0" stop-color="#f2dad4"></stop><stop offset="0.91" stop-color="#f2c9a5"></stop></linearGradient><linearGradient id="linear-gradient-18" x1="-9214.86" y1="146.08" x2="-9125.67" y2="243.06" gradientTransform="matrix(-1, 0, 0, 1, -9048.38, 0)" gradientUnits="userSpaceOnUse"><stop offset="0.12" stop-color="#26d8ef"></stop><stop offset="0.85" stop-color="#005aff"></stop></linearGradient><linearGradient id="linear-gradient-19" x1="-9325.47" y1="128.65" x2="-9312.92" y2="114.63" xlink:href="#linear-gradient-17"></linearGradient></defs><title>How to hire a C++ developer</title><rect class="cls-5" x="67.79" width="349.17" height="216.21" rx="2.55"></rect><rect class="cls-6" x="81.22" y="26.75" width="113.84" height="174.24"></rect><rect class="cls-7" x="67.85" width="349.05" height="12.27" rx="2.37"></rect><path class="cls-8" d="M86.77,6.18A2.37,2.37,0,1,1,84.4,3.84,2.36,2.36,0,0,1,86.77,6.18Z"></path><path class="cls-8" d="M94.43,6.18a2.37,2.37,0,1,1-2.37-2.34A2.36,2.36,0,0,1,94.43,6.18Z"></path><path class="cls-8" d="M102.09,6.18a2.37,2.37,0,1,1-2.37-2.34A2.36,2.36,0,0,1,102.09,6.18Z"></path><path class="cls-9" d="M211.52,21.93h-2.15v-.44h.8V18.57h-.8v-.4a1.43,1.43,0,0,0,.67-.12.6.6,0,0,0,.24-.49h.46v3.93h.78Z"></path><path class="cls-9" d="M215.08,19.75a3.3,3.3,0,0,1-.35,1.72,1.3,1.3,0,0,1-2.13,0,3.31,3.31,0,0,1-.34-1.7A3.29,3.29,0,0,1,212.6,18a1.3,1.3,0,0,1,2.14,0A3.4,3.4,0,0,1,215.08,19.75Zm-.76,1.33a2.27,2.27,0,0,0,.12-.55q0-.33,0-.78c0-.29,0-.55,0-.77a1.85,1.85,0,0,0-.13-.55.72.72,0,0,0-.24-.34.63.63,0,0,0-.4-.12.66.66,0,0,0-.41.12.82.82,0,0,0-.25.34,2,2,0,0,0-.12.56c0,.23,0,.48,0,.77s0,.56,0,.76a2.13,2.13,0,0,0,.12.55.84.84,0,0,0,.24.35.7.7,0,0,0,.42.12.65.65,0,0,0,.4-.12A.69.69,0,0,0,214.32,21.08Z"></path><path class="cls-9" d="M211.52,30.92h-2.15v-.44h.8V27.56h-.8v-.39A1.41,1.41,0,0,0,210,27a.59.59,0,0,0,.24-.48h.46v3.92h.78Z"></path><path class="cls-9" d="M214.83,30.92h-2.15v-.44h.8V27.56h-.8v-.39a1.44,1.44,0,0,0,.67-.13.59.59,0,0,0,.24-.48h.46v3.92h.78Z"></path><path class="cls-9" d="M211.52,39.92h-2.15v-.44h.8V36.56h-.8v-.4A1.3,1.3,0,0,0,210,36a.56.56,0,0,0,.24-.48h.46v3.93h.78Z"></path><path class="cls-9" d="M215.05,39.92h-2.72v-.61l.56-.53c.17-.16.34-.34.51-.52a5,5,0,0,0,.68-.88,1.26,1.26,0,0,0,.19-.67.76.76,0,0,0-.06-.32.63.63,0,0,0-.16-.23.7.7,0,0,0-.24-.13.94.94,0,0,0-.3-.05,1.87,1.87,0,0,0-.32,0l-.31.1a1,1,0,0,0-.23.12l-.19.12h0v-.62a2.89,2.89,0,0,1,.51-.18,2.7,2.7,0,0,1,.62-.08,1.37,1.37,0,0,1,1,.32,1.16,1.16,0,0,1,.35.88,1.78,1.78,0,0,1-.06.47,2,2,0,0,1-.17.4,2.78,2.78,0,0,1-.26.37,3.8,3.8,0,0,1-.33.37c-.18.2-.39.41-.62.62s-.41.39-.54.51h2.16Z"></path><path class="cls-9" d="M211.52,48.91h-2.15v-.44h.8V45.55h-.8v-.39A1.41,1.41,0,0,0,210,45a.59.59,0,0,0,.24-.48h.46v3.92h.78Z"></path><path class="cls-9" d="M213.52,45a1.22,1.22,0,0,0-.32,0,1.24,1.24,0,0,0-.31.1,1.45,1.45,0,0,0-.25.12l-.18.12h0v-.62a2.07,2.07,0,0,1,.52-.18,2.39,2.39,0,0,1,.63-.09,2,2,0,0,1,.52.06,1.18,1.18,0,0,1,.41.19.79.79,0,0,1,.29.34,1,1,0,0,1,.1.46.92.92,0,0,1-.24.63,1.08,1.08,0,0,1-.57.35v0l.3.09a1,1,0,0,1,.29.19,1,1,0,0,1,.22.32,1.14,1.14,0,0,1,.09.48,1.53,1.53,0,0,1-.1.54,1.3,1.3,0,0,1-.76.74,1.71,1.71,0,0,1-.62.11,2.82,2.82,0,0,1-.65-.08,3.48,3.48,0,0,1-.55-.19v-.62h0a2.09,2.09,0,0,0,.5.26,1.76,1.76,0,0,0,.63.12,1.13,1.13,0,0,0,.36-.06.75.75,0,0,0,.3-.18,1,1,0,0,0,.25-.68,1,1,0,0,0-.07-.39.59.59,0,0,0-.2-.24.84.84,0,0,0-.29-.12,2.13,2.13,0,0,0-.37,0h-.25v-.49h.19a1.07,1.07,0,0,0,.65-.18.64.64,0,0,0,.25-.55.61.61,0,0,0-.06-.28.52.52,0,0,0-.17-.19.69.69,0,0,0-.25-.1A1.29,1.29,0,0,0,213.52,45Z"></path><path class="cls-9" d="M211.52,57.91h-2.15v-.44h.8V54.55h-.8v-.4A1.3,1.3,0,0,0,210,54a.56.56,0,0,0,.24-.48h.46v3.93h.78Z"></path><path class="cls-9" d="M215.17,56.41h-.52v1.5h-.57v-1.5h-2V55.8l2-2.24h.55V56h.52ZM214.08,56V54.24L212.59,56Z"></path><path class="cls-9" d="M211.52,66.9h-2.15v-.44h.8V63.54h-.8v-.39A1.41,1.41,0,0,0,210,63a.59.59,0,0,0,.24-.48h.46v3.92h.78Z"></path><path class="cls-9" d="M215,65.52a1.57,1.57,0,0,1-.1.58,1.47,1.47,0,0,1-.28.47,1.43,1.43,0,0,1-.47.31,1.52,1.52,0,0,1-.62.11,3.18,3.18,0,0,1-.62-.06,3,3,0,0,1-.53-.18v-.62h0l.2.11.28.12.32.1a1.51,1.51,0,0,0,.32,0,1,1,0,0,0,.35-.06.75.75,0,0,0,.29-.21.87.87,0,0,0,.17-.3,1.56,1.56,0,0,0,.05-.4,1,1,0,0,0-.06-.38.53.53,0,0,0-.19-.25.7.7,0,0,0-.31-.16,1.73,1.73,0,0,0-.41,0,2.59,2.59,0,0,0-.48,0l-.39.06V62.55H215v.51h-1.85v1.16l.21,0h.19a2.94,2.94,0,0,1,.57,0,1.18,1.18,0,0,1,.45.22,1.12,1.12,0,0,1,.34.41A1.47,1.47,0,0,1,215,65.52Z"></path><path class="cls-9" d="M211.52,75.9h-2.15v-.45h.8V72.54h-.8v-.4A1.3,1.3,0,0,0,210,72a.56.56,0,0,0,.24-.48h.46v3.92h.78Z"></path><path class="cls-9" d="M215.12,74.49a1.59,1.59,0,0,1-.11.62,1.39,1.39,0,0,1-.75.78,1.53,1.53,0,0,1-.54.1,1.33,1.33,0,0,1-.54-.1,1.16,1.16,0,0,1-.43-.3,1.58,1.58,0,0,1-.36-.63,3.35,3.35,0,0,1-.13-1,4.1,4.1,0,0,1,.12-1,2.22,2.22,0,0,1,.37-.79,1.71,1.71,0,0,1,.61-.52,2.07,2.07,0,0,1,.88-.18h.28l.22,0v.56h0a1.1,1.1,0,0,0-.23-.09,1.58,1.58,0,0,0-.32,0,1.17,1.17,0,0,0-.89.36,1.84,1.84,0,0,0-.4,1.09,1.94,1.94,0,0,1,.43-.22,1.53,1.53,0,0,1,.49-.08,2,2,0,0,1,.45,0,1,1,0,0,1,.4.21,1,1,0,0,1,.36.46A1.6,1.6,0,0,1,215.12,74.49Zm-.6,0a1.18,1.18,0,0,0-.07-.45.76.76,0,0,0-.23-.31.62.62,0,0,0-.26-.12,1.53,1.53,0,0,0-.3,0,1.45,1.45,0,0,0-.41.06,1.64,1.64,0,0,0-.38.18s0,.08,0,.12v.15a2.37,2.37,0,0,0,.09.73,1,1,0,0,0,.22.42.76.76,0,0,0,.26.2.94.94,0,0,0,.3.05.72.72,0,0,0,.57-.25A1.1,1.1,0,0,0,214.52,74.51Z"></path><path class="cls-9" d="M211.52,84.89h-2.15v-.44h.8V81.53h-.8v-.39A1.41,1.41,0,0,0,210,81a.59.59,0,0,0,.24-.48h.46v3.92h.78Z"></path><path class="cls-9" d="M215.1,81.19l-1.9,3.7h-.63l2-3.84H212.3v-.51h2.8Z"></path><path class="cls-9" d="M211.52,93.89h-2.15v-.45h.8V90.53h-.8v-.4A1.3,1.3,0,0,0,210,90a.56.56,0,0,0,.24-.48h.46v3.92h.78Z"></path><path class="cls-9" d="M213.67,94a1.64,1.64,0,0,1-.6-.1,1.27,1.27,0,0,1-.46-.28,1.07,1.07,0,0,1-.28-.41,1.25,1.25,0,0,1-.1-.51,1.13,1.13,0,0,1,.19-.65,1.25,1.25,0,0,1,.56-.47v0a1.59,1.59,0,0,1-.49-.41,1,1,0,0,1-.15-.56,1,1,0,0,1,.37-.81,1.6,1.6,0,0,1,1.92,0,1,1,0,0,1,.36.8,1.14,1.14,0,0,1-.17.57,1.22,1.22,0,0,1-.5.45v0a1.49,1.49,0,0,1,.58.43,1,1,0,0,1,.2.66,1.19,1.19,0,0,1-.41.93A1.45,1.45,0,0,1,213.67,94Zm.83-1.26a.78.78,0,0,0-.11-.43A1.23,1.23,0,0,0,214,92l-.27-.12-.38-.15a1.08,1.08,0,0,0-.37.4,1,1,0,0,0-.13.53.94.94,0,0,0,.24.66.79.79,0,0,0,.6.25.77.77,0,0,0,.83-.82Zm-.09-2.18a.64.64,0,0,0-.2-.49.74.74,0,0,0-.55-.19.84.84,0,0,0-.53.17.63.63,0,0,0-.2.48.61.61,0,0,0,.1.36,1,1,0,0,0,.32.27l.28.14a2.11,2.11,0,0,0,.34.13,1.06,1.06,0,0,0,.35-.4A1.13,1.13,0,0,0,214.41,90.55Z"></path><path class="cls-9" d="M211.52,102.88h-2.15v-.44h.8V99.52h-.8v-.4A1.43,1.43,0,0,0,210,99a.59.59,0,0,0,.24-.48h.46v3.92h.78Z"></path><path class="cls-9" d="M212.21,100a1.75,1.75,0,0,1,.11-.62,1.69,1.69,0,0,1,.3-.48,1.37,1.37,0,0,1,.45-.3,1.49,1.49,0,0,1,.54-.11,1.58,1.58,0,0,1,.55.1,1.19,1.19,0,0,1,.43.3,1.55,1.55,0,0,1,.35.62,3.08,3.08,0,0,1,.13,1,4.19,4.19,0,0,1-.12,1,2.37,2.37,0,0,1-.37.8,1.68,1.68,0,0,1-.61.52,1.94,1.94,0,0,1-.88.18l-.25,0a1,1,0,0,1-.25,0v-.56h0a1.18,1.18,0,0,0,.23.08,1.75,1.75,0,0,0,.32,0,1.15,1.15,0,0,0,.91-.38,1.76,1.76,0,0,0,.38-1.08,1.92,1.92,0,0,1-.45.23,1.41,1.41,0,0,1-.47.07,1.64,1.64,0,0,1-.45,0,1.15,1.15,0,0,1-.4-.2,1.09,1.09,0,0,1-.36-.46A1.6,1.6,0,0,1,212.21,100Zm2.26.37a2.38,2.38,0,0,0-.08-.72.93.93,0,0,0-.23-.43.68.68,0,0,0-.26-.2.93.93,0,0,0-.29,0,.71.71,0,0,0-.58.26,1.09,1.09,0,0,0-.22.74,1.2,1.2,0,0,0,.07.46.83.83,0,0,0,.23.3.62.62,0,0,0,.26.12,1.39,1.39,0,0,0,.3,0,1.56,1.56,0,0,0,.41-.06,1.34,1.34,0,0,0,.38-.18v-.27Z"></path><path class="cls-9" d="M211.75,111.88H209v-.61l.56-.53.51-.52a5.4,5.4,0,0,0,.68-.88,1.3,1.3,0,0,0,.19-.68.83.83,0,0,0-.06-.32.6.6,0,0,0-.16-.22.56.56,0,0,0-.24-.13.94.94,0,0,0-.3,0,1.22,1.22,0,0,0-.32,0,2.64,2.64,0,0,0-.3.1.9.9,0,0,0-.24.12l-.19.12h0v-.62a2.89,2.89,0,0,1,.51-.18,2.3,2.3,0,0,1,.62-.08,1.33,1.33,0,0,1,1,.32,1.1,1.1,0,0,1,.35.87,1.73,1.73,0,0,1-.06.47,1.61,1.61,0,0,1-.17.4,2.33,2.33,0,0,1-.26.38,3.8,3.8,0,0,1-.33.37c-.18.2-.39.41-.62.62l-.54.51h2.17Z"></path><path class="cls-9" d="M215.08,109.7a3.3,3.3,0,0,1-.35,1.72,1.3,1.3,0,0,1-2.13,0,3.31,3.31,0,0,1-.34-1.7,3.36,3.36,0,0,1,.34-1.73,1.32,1.32,0,0,1,2.14,0A3.44,3.44,0,0,1,215.08,109.7Zm-.76,1.33a2.38,2.38,0,0,0,.12-.55q0-.33,0-.78t0-.78a1.93,1.93,0,0,0-.13-.55.69.69,0,0,0-.24-.33.63.63,0,0,0-.4-.12.66.66,0,0,0-.41.12.76.76,0,0,0-.25.34,2,2,0,0,0-.12.56c0,.23,0,.48,0,.77s0,.55,0,.76a2.22,2.22,0,0,0,.12.55.8.8,0,0,0,.24.34.64.64,0,0,0,.42.13.65.65,0,0,0,.4-.12A.74.74,0,0,0,214.32,111Z"></path><path class="cls-9" d="M211.75,120.87H209v-.61l.56-.52.51-.53a5,5,0,0,0,.68-.87,1.32,1.32,0,0,0,.19-.68.79.79,0,0,0-.06-.32.63.63,0,0,0-.16-.23.7.7,0,0,0-.24-.13,1,1,0,0,0-.3,0,1.22,1.22,0,0,0-.32,0,1.49,1.49,0,0,0-.3.09l-.24.12-.19.12h0v-.62a3.28,3.28,0,0,1,1.13-.26,1.37,1.37,0,0,1,1,.32,1.12,1.12,0,0,1,.35.88,1.66,1.66,0,0,1-.23.87,2.86,2.86,0,0,1-.26.38q-.15.18-.33.36c-.18.2-.39.41-.62.62s-.41.39-.54.51h2.17Z"></path><path class="cls-9" d="M214.83,120.87h-2.15v-.44h.8v-2.92h-.8v-.4a1.46,1.46,0,0,0,.67-.12.59.59,0,0,0,.24-.48h.46v3.92h.78Z"></path><path class="cls-9" d="M211.75,129.87H209v-.61l.56-.53.51-.52a5.4,5.4,0,0,0,.68-.88,1.3,1.3,0,0,0,.19-.68.83.83,0,0,0-.06-.32.6.6,0,0,0-.16-.22.72.72,0,0,0-.24-.14,1.36,1.36,0,0,0-.3,0,1.22,1.22,0,0,0-.32,0,2.64,2.64,0,0,0-.3.1.9.9,0,0,0-.24.12,1,1,0,0,0-.19.12h0v-.62a2.89,2.89,0,0,1,.51-.18,2.3,2.3,0,0,1,.62-.08,1.33,1.33,0,0,1,1,.32,1.1,1.1,0,0,1,.35.87,1.73,1.73,0,0,1-.06.47,1.61,1.61,0,0,1-.17.4,2.33,2.33,0,0,1-.26.38,3.8,3.8,0,0,1-.33.37c-.18.2-.39.4-.62.62l-.54.51h2.17Z"></path><path class="cls-9" d="M215.05,129.87h-2.72v-.61l.56-.53.51-.52a5.4,5.4,0,0,0,.68-.88,1.3,1.3,0,0,0,.19-.68.83.83,0,0,0-.06-.32.6.6,0,0,0-.16-.22.72.72,0,0,0-.24-.14,1.36,1.36,0,0,0-.3,0,1.22,1.22,0,0,0-.32,0l-.31.1a1,1,0,0,0-.23.12,1,1,0,0,0-.19.12h0v-.62a2.89,2.89,0,0,1,.51-.18,2.25,2.25,0,0,1,.62-.08,1.33,1.33,0,0,1,1,.32,1.14,1.14,0,0,1,.35.87,1.73,1.73,0,0,1-.06.47,1.61,1.61,0,0,1-.17.4,2.33,2.33,0,0,1-.26.38,3.8,3.8,0,0,1-.33.37c-.18.2-.39.4-.62.62l-.54.51h2.16Z"></path><path class="cls-9" d="M211.75,138.86H209v-.61l.56-.52.51-.53a5,5,0,0,0,.68-.87,1.32,1.32,0,0,0,.19-.68.79.79,0,0,0-.06-.32.63.63,0,0,0-.16-.23.7.7,0,0,0-.24-.13,1,1,0,0,0-.3,0,1.22,1.22,0,0,0-.32,0,1.49,1.49,0,0,0-.3.09l-.24.12-.19.12h0v-.62a3.28,3.28,0,0,1,1.13-.26,1.37,1.37,0,0,1,1,.32,1.12,1.12,0,0,1,.35.88,1.66,1.66,0,0,1-.23.87,2.86,2.86,0,0,1-.26.38q-.15.18-.33.36c-.18.2-.39.41-.62.62s-.41.39-.54.51h2.17Z"></path><path class="cls-9" d="M213.52,134.93l-.32,0-.31.1a1.46,1.46,0,0,0-.25.13l-.18.12h0v-.62a2.51,2.51,0,0,1,.52-.19,2.86,2.86,0,0,1,.63-.08,2,2,0,0,1,.52.06,1.18,1.18,0,0,1,.41.19.83.83,0,0,1,.29.33,1,1,0,0,1,.1.47.92.92,0,0,1-.24.63,1.08,1.08,0,0,1-.57.35v0a1,1,0,0,1,.3.09.85.85,0,0,1,.29.19,1,1,0,0,1,.22.32,1.14,1.14,0,0,1,.09.48,1.53,1.53,0,0,1-.1.54,1.46,1.46,0,0,1-.29.44,1.35,1.35,0,0,1-.47.3,1.72,1.72,0,0,1-.62.1,2.36,2.36,0,0,1-.65-.08,2.2,2.2,0,0,1-.55-.19v-.61h0a2.1,2.1,0,0,0,.5.25,1.58,1.58,0,0,0,.63.13,1.13,1.13,0,0,0,.36-.06.67.67,0,0,0,.3-.19.84.84,0,0,0,.18-.28.88.88,0,0,0,.07-.39,1,1,0,0,0-.07-.39.59.59,0,0,0-.2-.24.69.69,0,0,0-.29-.12,2.13,2.13,0,0,0-.37,0h-.25v-.49h.19a1,1,0,0,0,.65-.19.7.7,0,0,0,.19-.82.52.52,0,0,0-.17-.19.71.71,0,0,0-.25-.11Z"></path><path class="cls-9" d="M211.75,147.86H209v-.61l.56-.53.51-.52a5.4,5.4,0,0,0,.68-.88,1.3,1.3,0,0,0,.19-.68.83.83,0,0,0-.06-.32.6.6,0,0,0-.16-.22.72.72,0,0,0-.24-.14,1,1,0,0,0-.3,0,1.22,1.22,0,0,0-.32,0l-.3.1a.9.9,0,0,0-.24.12,1,1,0,0,0-.19.12h0v-.62a2.89,2.89,0,0,1,.51-.18,2.32,2.32,0,0,1,.62-.09,1.33,1.33,0,0,1,1,.33,1.09,1.09,0,0,1,.35.87,1.73,1.73,0,0,1-.06.47,1.61,1.61,0,0,1-.17.4,2.33,2.33,0,0,1-.26.38,3.8,3.8,0,0,1-.33.37c-.18.2-.39.4-.62.62l-.54.51h2.17Z"></path><path class="cls-9" d="M215.17,146.36h-.52v1.5h-.57v-1.5h-2v-.61l2-2.24h.55v2.38h.52Zm-1.09-.47v-1.7l-1.49,1.7Z"></path><path class="cls-9" d="M211.75,156.85H209v-.61l.56-.53c.17-.16.34-.34.51-.52a5,5,0,0,0,.68-.87,1.32,1.32,0,0,0,.19-.68.79.79,0,0,0-.06-.32.63.63,0,0,0-.16-.23.7.7,0,0,0-.24-.13,1,1,0,0,0-.3,0l-.32,0a2.64,2.64,0,0,0-.3.1l-.24.12-.19.12h0v-.62a3.28,3.28,0,0,1,1.13-.26,1.37,1.37,0,0,1,1,.32,1.12,1.12,0,0,1,.35.88,1.66,1.66,0,0,1-.23.87,2.86,2.86,0,0,1-.26.38q-.15.18-.33.36c-.18.2-.39.41-.62.62s-.41.39-.54.51h2.17Z"></path><path class="cls-9" d="M215,155.47a1.56,1.56,0,0,1-.38,1.05,1.43,1.43,0,0,1-.47.31,1.71,1.71,0,0,1-.62.11,2.56,2.56,0,0,1-.62-.07,1.94,1.94,0,0,1-.53-.18v-.61h0l.2.11.28.12.32.09a1,1,0,0,0,.32,0,.84.84,0,0,0,.35-.07.72.72,0,0,0,.29-.2,1,1,0,0,0,.17-.3,1.64,1.64,0,0,0,.05-.41,1,1,0,0,0-.06-.38.5.5,0,0,0-.19-.24.61.61,0,0,0-.31-.16,1.73,1.73,0,0,0-.41,0l-.48,0-.39.07V152.5H215V153h-1.85v1.16l.21,0h.19a2.32,2.32,0,0,1,.57,0,1.18,1.18,0,0,1,.45.22,1,1,0,0,1,.34.41A1.44,1.44,0,0,1,215,155.47Z"></path><path class="cls-9" d="M211.75,165.85H209v-.61l.56-.53.51-.52a5.4,5.4,0,0,0,.68-.88,1.3,1.3,0,0,0,.19-.68.83.83,0,0,0-.06-.32.6.6,0,0,0-.16-.22.72.72,0,0,0-.24-.14,1,1,0,0,0-.3,0,1.22,1.22,0,0,0-.32,0,2.64,2.64,0,0,0-.3.1.9.9,0,0,0-.24.12,1,1,0,0,0-.19.12h0v-.62a2.89,2.89,0,0,1,.51-.18,2.32,2.32,0,0,1,.62-.09,1.33,1.33,0,0,1,1,.33,1.09,1.09,0,0,1,.35.87,1.73,1.73,0,0,1-.06.47,1.61,1.61,0,0,1-.17.4,2.33,2.33,0,0,1-.26.38,3.8,3.8,0,0,1-.33.37c-.18.2-.39.4-.62.62l-.54.51h2.17Z"></path><path class="cls-9" d="M215.12,164.43a1.52,1.52,0,0,1-.11.62,1.45,1.45,0,0,1-.3.48,1.37,1.37,0,0,1-.45.3,1.33,1.33,0,0,1-.54.11,1.53,1.53,0,0,1-.54-.1,1.28,1.28,0,0,1-.43-.3,1.74,1.74,0,0,1-.36-.63,3.35,3.35,0,0,1-.13-1,4.1,4.1,0,0,1,.12-1,2.35,2.35,0,0,1,.37-.8,1.59,1.59,0,0,1,.61-.51,2.07,2.07,0,0,1,.88-.19l.28,0,.22,0V162h0a1.18,1.18,0,0,0-.23-.08,1.58,1.58,0,0,0-.32,0,1.17,1.17,0,0,0-.89.36,1.84,1.84,0,0,0-.4,1.09,1.59,1.59,0,0,1,.43-.22,1.29,1.29,0,0,1,.49-.08,1.55,1.55,0,0,1,.45.05,1.15,1.15,0,0,1,.4.2,1.06,1.06,0,0,1,.36.46A1.67,1.67,0,0,1,215.12,164.43Zm-.6,0a1.18,1.18,0,0,0-.07-.45.7.7,0,0,0-.23-.31.62.62,0,0,0-.26-.12,1.53,1.53,0,0,0-.3,0,1.45,1.45,0,0,0-.41.06,1.64,1.64,0,0,0-.38.18s0,.08,0,.12v.15a2.41,2.41,0,0,0,.09.73,1,1,0,0,0,.22.42.72.72,0,0,0,.26.19.73.73,0,0,0,.3.06.72.72,0,0,0,.57-.25A1.1,1.1,0,0,0,214.52,164.46Z"></path><path class="cls-9" d="M211.75,174.84H209v-.61l.56-.53c.17-.16.34-.34.51-.52a5.42,5.42,0,0,0,.68-.87,1.32,1.32,0,0,0,.19-.68.79.79,0,0,0-.06-.32.63.63,0,0,0-.16-.23.7.7,0,0,0-.24-.13.94.94,0,0,0-.3,0,1.87,1.87,0,0,0-.32,0l-.3.1a.9.9,0,0,0-.24.12l-.19.12h0v-.62a3.28,3.28,0,0,1,1.13-.26,1.37,1.37,0,0,1,1,.32,1.12,1.12,0,0,1,.35.88,1.66,1.66,0,0,1-.23.87,3.69,3.69,0,0,1-.26.38q-.15.18-.33.36c-.18.2-.39.41-.62.62s-.41.39-.54.51h2.17Z"></path><path class="cls-9" d="M215.1,171.14l-1.9,3.7h-.63l2-3.84H212.3v-.51h2.8Z"></path><path class="cls-9" d="M211.75,183.84H209v-.61l.56-.53.51-.52a5.4,5.4,0,0,0,.68-.88,1.32,1.32,0,0,0,.19-.68.79.79,0,0,0-.06-.32.73.73,0,0,0-.16-.23.92.92,0,0,0-.24-.13,1,1,0,0,0-.3,0,1.22,1.22,0,0,0-.32,0l-.3.1a.9.9,0,0,0-.24.12,1,1,0,0,0-.19.12h0v-.62a2.89,2.89,0,0,1,.51-.18,2.32,2.32,0,0,1,.62-.09,1.33,1.33,0,0,1,1,.33,1.09,1.09,0,0,1,.35.87,1.73,1.73,0,0,1-.06.47,1.61,1.61,0,0,1-.17.4,2.33,2.33,0,0,1-.26.38c-.1.12-.21.25-.33.37s-.39.4-.62.62l-.54.51h2.17Z"></path><path class="cls-9" d="M213.67,183.94a1.89,1.89,0,0,1-.6-.1,1.42,1.42,0,0,1-.46-.28,1.11,1.11,0,0,1-.28-.42,1.25,1.25,0,0,1-.1-.51,1.17,1.17,0,0,1,.19-.65,1.38,1.38,0,0,1,.56-.47h0a1.74,1.74,0,0,1-.49-.41,1,1,0,0,1-.15-.56,1,1,0,0,1,.37-.82,1.62,1.62,0,0,1,1.92,0,1,1,0,0,1,.36.79,1.14,1.14,0,0,1-.17.58,1.22,1.22,0,0,1-.5.45v0a1.4,1.4,0,0,1,.58.43,1,1,0,0,1,.2.65,1.19,1.19,0,0,1-.41.94A1.45,1.45,0,0,1,213.67,183.94Zm.83-1.26a.78.78,0,0,0-.11-.43,1.23,1.23,0,0,0-.41-.32l-.27-.12-.38-.15a1.14,1.14,0,0,0-.37.39,1.08,1.08,0,0,0-.13.54.92.92,0,0,0,.24.65.79.79,0,0,0,.6.26.77.77,0,0,0,.83-.82Zm-.09-2.18a.63.63,0,0,0-.2-.49.74.74,0,0,0-.55-.2.79.79,0,0,0-.53.18.6.6,0,0,0-.2.47.62.62,0,0,0,.1.37,1,1,0,0,0,.32.27l.28.14.34.13a1.06,1.06,0,0,0,.35-.4A1.16,1.16,0,0,0,214.41,180.5Z"></path><path class="cls-9" d="M211.75,192.83H209v-.61l.56-.53c.17-.16.34-.34.51-.52a5,5,0,0,0,.68-.88,1.26,1.26,0,0,0,.19-.67.76.76,0,0,0-.06-.32.63.63,0,0,0-.16-.23.7.7,0,0,0-.24-.13.94.94,0,0,0-.3-.05,1.87,1.87,0,0,0-.32,0l-.3.1a.9.9,0,0,0-.24.12l-.19.12h0v-.62a2.89,2.89,0,0,1,.51-.18,2.78,2.78,0,0,1,.62-.08,1.37,1.37,0,0,1,1,.32,1.12,1.12,0,0,1,.35.88,1.78,1.78,0,0,1-.06.47,2,2,0,0,1-.17.4,2.78,2.78,0,0,1-.26.37,3.8,3.8,0,0,1-.33.37c-.18.2-.39.41-.62.62s-.41.39-.54.51h2.17Z"></path><path class="cls-9" d="M212.21,189.89a1.7,1.7,0,0,1,.11-.61,1.45,1.45,0,0,1,.3-.48,1.37,1.37,0,0,1,.45-.3,1.49,1.49,0,0,1,.54-.11,1.38,1.38,0,0,1,.55.1,1.3,1.3,0,0,1,.43.29,1.59,1.59,0,0,1,.35.63,3.06,3.06,0,0,1,.13,1,4.34,4.34,0,0,1-.12,1,2.37,2.37,0,0,1-.37.8,1.68,1.68,0,0,1-.61.52,1.94,1.94,0,0,1-.88.18l-.25,0a1,1,0,0,1-.25-.05v-.55h0a1.3,1.3,0,0,0,.23.07,1.17,1.17,0,0,0,.32,0,1.14,1.14,0,0,0,.91-.37,1.81,1.81,0,0,0,.38-1.08,2.4,2.4,0,0,1-.45.23,1.41,1.41,0,0,1-.47.07,2.14,2.14,0,0,1-.45,0,1.19,1.19,0,0,1-.4-.21,1.13,1.13,0,0,1-.36-.45A1.62,1.62,0,0,1,212.21,189.89Zm2.26.38a2.5,2.5,0,0,0-.08-.73,1,1,0,0,0-.23-.43.75.75,0,0,0-.26-.19.93.93,0,0,0-.29,0,.7.7,0,0,0-.58.25,1.12,1.12,0,0,0-.22.75,1.18,1.18,0,0,0,.07.45.87.87,0,0,0,.23.31.62.62,0,0,0,.26.12,1.39,1.39,0,0,0,.3,0,1.56,1.56,0,0,0,.41-.06,1.68,1.68,0,0,0,.38-.18v-.27Z"></path><path class="cls-9" d="M210.21,197.89a1.22,1.22,0,0,0-.32,0,1.86,1.86,0,0,0-.31.1l-.25.12-.18.12h0v-.62a2.07,2.07,0,0,1,.52-.18,2.39,2.39,0,0,1,.63-.09,2,2,0,0,1,.52.06,1.4,1.4,0,0,1,.41.19.85.85,0,0,1,.29.34,1,1,0,0,1,.1.46.92.92,0,0,1-.24.63,1.08,1.08,0,0,1-.57.35v0l.3.09a1,1,0,0,1,.29.19,1,1,0,0,1,.22.32,1.14,1.14,0,0,1,.09.48,1.63,1.63,0,0,1-.1.55,1.42,1.42,0,0,1-.29.43,1.12,1.12,0,0,1-.47.3,1.71,1.71,0,0,1-.62.11,2.82,2.82,0,0,1-.65-.08,3.48,3.48,0,0,1-.55-.19V201h0a2.09,2.09,0,0,0,.5.26,1.76,1.76,0,0,0,.63.12,1.13,1.13,0,0,0,.36-.06.65.65,0,0,0,.3-.18,1,1,0,0,0,.25-.68,1.09,1.09,0,0,0-.07-.39.59.59,0,0,0-.2-.24,1.1,1.1,0,0,0-.29-.12,2.13,2.13,0,0,0-.37,0h-.25v-.49h.19a1.07,1.07,0,0,0,.65-.18.64.64,0,0,0,.25-.55.61.61,0,0,0-.06-.28.52.52,0,0,0-.17-.19.63.63,0,0,0-.25-.1A1.29,1.29,0,0,0,210.21,197.89Z"></path><path class="cls-9" d="M215.08,199.65a3.33,3.33,0,0,1-.35,1.72,1.17,1.17,0,0,1-1.06.55,1.16,1.16,0,0,1-1.07-.56,4.5,4.5,0,0,1,0-3.43,1.18,1.18,0,0,1,1.07-.54,1.16,1.16,0,0,1,1.07.56A3.44,3.44,0,0,1,215.08,199.65Zm-.76,1.32a2.18,2.18,0,0,0,.12-.54q0-.33,0-.78t0-.78a1.93,1.93,0,0,0-.13-.55.72.72,0,0,0-.24-.34.7.7,0,0,0-.4-.11.73.73,0,0,0-.41.11.85.85,0,0,0-.25.35,2,2,0,0,0-.12.56c0,.22,0,.48,0,.76s0,.56,0,.77a2.33,2.33,0,0,0,.12.55.8.8,0,0,0,.24.34.7.7,0,0,0,.42.12.65.65,0,0,0,.4-.11A.72.72,0,0,0,214.32,201Z"></path><path class="cls-9" d="M210.21,206.88a1.87,1.87,0,0,0-.32,0l-.31.1-.25.12-.18.12h0v-.61a2.51,2.51,0,0,1,.52-.19,2.86,2.86,0,0,1,.63-.08,2,2,0,0,1,.52.06,1.38,1.38,0,0,1,.41.18.93.93,0,0,1,.29.34,1,1,0,0,1,.1.47.92.92,0,0,1-.24.63,1.06,1.06,0,0,1-.57.34v0l.3.09a1.32,1.32,0,0,1,.29.19,1.12,1.12,0,0,1,.22.33,1.14,1.14,0,0,1,.09.48,1.53,1.53,0,0,1-.1.54,1.46,1.46,0,0,1-.29.44,1.35,1.35,0,0,1-.47.3,1.72,1.72,0,0,1-.62.1,2.82,2.82,0,0,1-.65-.08,2.2,2.2,0,0,1-.55-.19V210h0a2.57,2.57,0,0,0,.5.25,1.76,1.76,0,0,0,.63.12,1.12,1.12,0,0,0,.36-.05.67.67,0,0,0,.3-.19.84.84,0,0,0,.18-.28.88.88,0,0,0,.07-.39,1,1,0,0,0-.07-.39.59.59,0,0,0-.2-.24.69.69,0,0,0-.29-.12,2.1,2.1,0,0,0-.37,0h-.25v-.48h.19a1,1,0,0,0,.65-.19.7.7,0,0,0,.19-.82.45.45,0,0,0-.17-.19.64.64,0,0,0-.25-.11A1.29,1.29,0,0,0,210.21,206.88Z"></path><path class="cls-9" d="M214.83,210.82h-2.15v-.44h.8v-2.92h-.8v-.4a1.32,1.32,0,0,0,.67-.13.56.56,0,0,0,.24-.48h.46v3.93h.78Z"></path><rect class="cls-10" x="227.74" y="19.19" width="33.08" height="0.95"></rect><rect class="cls-11" x="227.74" y="28.64" width="35.27" height="0.95"></rect><rect class="cls-10" x="267.49" y="28.64" width="51.34" height="0.95"></rect><rect class="cls-10" x="227.74" y="46.57" width="23.72" height="0.95"></rect><rect class="cls-12" x="256.03" y="46.57" width="110.01" height="0.95"></rect><rect class="cls-11" x="227.7" y="55.39" width="27.51" height="0.95"></rect><rect class="cls-10" x="258.37" y="55.39" width="17.18" height="0.95"></rect><rect class="cls-13" x="279.36" y="55.39" width="21.25" height="0.95"></rect><rect class="cls-12" x="310.18" y="55.39" width="39.96" height="0.95"></rect><rect class="cls-9" x="92.4" y="38.73" width="79.87" height="1.39"></rect><rect class="cls-9" x="92.4" y="91.01" width="92.33" height="1.39"></rect><rect class="cls-9" x="92.4" y="103.06" width="41.23" height="0.7"></rect><rect class="cls-9" x="92.4" y="111.89" width="46.9" height="0.7"></rect><rect class="cls-9" x="92.4" y="120.64" width="34.13" height="0.7"></rect><rect class="cls-9" x="92.4" y="129.39" width="30.07" height="0.7"></rect><rect class="cls-9" x="92.4" y="138.15" width="51.4" height="0.7"></rect><rect class="cls-14" x="92.4" y="48.39" width="46.2" height="0.7"></rect><rect class="cls-15" x="92.4" y="57.22" width="60.33" height="0.7"></rect><rect class="cls-14" x="92.4" y="65.97" width="31.12" height="0.7"></rect><rect class="cls-15" x="92.4" y="74.73" width="24.77" height="0.7"></rect><rect class="cls-16" x="92.4" y="83.48" width="43.53" height="0.7"></rect><rect class="cls-9" x="92.4" y="146.9" width="32.97" height="0.7"></rect><rect class="cls-9" x="92.4" y="155.65" width="26.97" height="0.7"></rect><rect class="cls-9" x="92.4" y="164.41" width="58.12" height="0.7"></rect><rect class="cls-9" x="92.4" y="173.16" width="71.72" height="0.7"></rect><rect class="cls-9" x="92.4" y="181.91" width="20.5" height="0.7"></rect><rect class="cls-9" x="92.4" y="190.66" width="35.86" height="0.7"></rect><rect class="cls-9" x="92.4" y="199.42" width="16.71" height="0.7"></rect><rect class="cls-9" x="92.4" y="213.95" width="27.56" height="1.39"></rect><rect class="cls-9" x="92.4" y="224.42" width="40.07" height="1.39"></rect><path class="cls-17" d="M461.44,72.72c4.55,2.56-6.05,24-7.24,33.7s-19.66-1.73-21.13,1.54,16.46,1.87,18.2,5-3.66,4.65-5.92,4.43-15.44-.63-13.47.25,16.75,1.21,17.11,2.16-4.49,15.28-8.65,15.78-25.19-3.42-25.71-.51,9.6,6.65,13.75,6.16,9.84-2.67,9-.7-4.91,12.73-7.83,12.21-20.67-3-21.33-3.27,19.14,4.65,20.45,5.23-2.95,13.62-6.81,13.46-17.47-3.11-18.35-1.15,17.83,4.06,16.95,6-5.73,16.3-8.64,15.78-18.63-7.56-20.75-4.58,20.23,7.49,19.64,8.8-3.72,3-7.29,2.24-12.14-6.23-13-4.27,16.66,6.68,16.36,7.33-4,10.77-9.2,10-17.16-10.83-18.4-9.82,15,13.82,17.65,15-25.16,12.31-32,10-5.24-2.35-5.24-2.35a9.12,9.12,0,0,0-3.07,3.34l-2.64,5.9s-3.86-.16-3-2.12,5.41-8.58,4.11-9.17-16.87-11.49-17.05-23.36,4.08-24.9,5.45-22.71,10.1,10.81,11.63,9.14-7.47-9.64-9.48-19.19,3.54-14.92,5.28-11.78,9.73,9.86,11,8.85S351.36,150,351.23,146.76s3.43-2.39,6.41-.27,6.45,8.4,8.64,7S351,140.35,353.07,137.37s9.59-16.14,13-11.47,13.06,20,15.25,18.62-15.61-19.57-13.19-23.2,5.46.09,7.2,3.23,7.32,13.49,6.53,10-9.35-16-7.53-18.3S384.87,99.73,386,104.18s2.72,18.51,4.91,17.13-4-19.09-3.15-21.06,17.83-18.74,20.16-16.91-1.31,22.21,2.19,21.42-2-23.68.52-25.71,2.77-2.69,3.56.81,1.32,23.39,2.85,21.72-5.31-26.75,3.88-29.71S454.53,68.84,461.44,72.72Z"></path><path class="cls-18" d="M366.1,239.9s10.66-6.23,14.15-7,5.11-.86,5.4-1.52-12.28-9.43-5-18.73,14.6-11.54,15.91-10.95-.4,13.18,1.56,14.06,5.46.09,4.38-2.76-4.79-6.86-2.6-8.24,7-1.58,11.29,1.13,5.3,3.95,8.51,3.81,12.46-1.49,19.08,3,9.43,10.51,7.83,10.58-13-4.26-14.78-.33,10.33,1.48,14.26,3.24,12.49,14.25,9.78,18.53-9.95-7.6-17.11-2.16,1.51,5.4,4.72,5.26,11.81-1.79,14.85,1.94,6,20,4.68,19.39-13-11.33-15.42-7.7,16,6.39,15,13.82-3,27.74-4.89,28.46-15-12.21-16.55-19.2-.32-15.08-.32-15.08-1.2,9.68-1.92,7.79-9.1-25.31-27.44-33.52-23.27-11.21-28.67-9.7-14.74,8.33-15.75,7.09Z"></path><path class="cls-19" d="M356.51,233.24s24-25.42,39.06-32.81,24.29-10.34,24.88-11.65S406.65,174,413.38,166s25.82-12,29.09-10.55,2.69,2.78,2.1,4.09S425.66,175.39,431.91,179s.54-10,14.11-15.69,17.63-.75,19.3.78,1.08,2.85-.16,3.86-20.65,12.76-16.72,14.52S466,166,471.28,168.32s12,10.08,9.14,11.17-16.77,5.85-15.39,8,15.76-7.09,20.34-5,11.69,10.74,10.81,12.71-7.6,10-12.48,8.55-10.54-6.29-11.42-4.33,11.56,7.54,12.87,8.13-9.43,12.28-15,9-10.59-15-15.4-14.76,13.57,17.09,14.88,17.68-18.17,10.72-24.72,7.79-9.21-12.77-11.47-13,10.52,13.36,6.66,13.2-27-8.16-26.82-19.09,10.54-16.5,9.23-17.09-27.85,9.54-38.08,18.32-25.93,24.54-25.93,24.54Z"></path><g class="cls-20"><path class="cls-21" d="M161.52,329.27c-13.29.22-64.45,4.11-71.91,6.26S8.75,352,6.18,353.87s6.7,4.56,18,3.85,17.24-1.64,19.66-2.6,21.1-3.67,23.8-3.81,11.6-1,12.92-2.14,4.75-3.42,6.32-3.42,49.08-4.84,60.07-5,20.87-.5,25.9-5.19S161.52,329.27,161.52,329.27Z"></path></g><g class="cls-22"><path class="cls-23" d="M340.36,329.27c12.52.32,37.56-1.28,38.21,4.82s-91,16.9-115,15.82-80.89-13.22-80.89-13.22Z"></path></g><path class="cls-24" d="M97.59,323.93S98,331,96.73,335s-3.75,7.2-6.55,7.77S63.36,345,57.36,344s-27.75-4.49-31.49-8.48S21,327.59,23.6,324.87s17.67-4.19,22.09-4.31S97.59,323.93,97.59,323.93Z"></path><path class="cls-25" d="M97.63,323s-1.12,4.25-3.72,6.67-10.38,5.54-16.58,5.78-13.91,0-13.91,0,15-22.08,18.73-23.05S97.63,323,97.63,323Z"></path><path class="cls-26" d="M72.53,327s2.88,11.49,3.94,14.81,0,10-2.92,10.43-20.27,1.46-23.64,1.07S37.8,354.52,34.58,355s-18.69-.23-22.29-1.69S.64,349.46.1,347.7s1.07-4.75,4.14-5.06,13.72-1.76,16.09-2.53,7.59-2.37,11.19-6.2,11.56-12.13,14.17-13.35,5.6.32,5.6.32Z"></path><path class="cls-27" d="M74.24,320.54s-1.55,5.63-1.71,6.44a8.08,8.08,0,0,1-5.19,6.81c-4.7,1.87-15.25,4.06-16.22,3.9s-3-4.3-5-5.44-3.89-4-2.27-6.33,8.68-8.92,9.81-10.3,3.17-6.65,4.06-7.46,4.46-3.65,9.73,0S75.2,317,74.24,320.54Z"></path><path class="cls-28" d="M110.73,206.59s-8-.06-12.55,10S81.42,253.73,79.76,258s-15.57,33.21-16,34.86S57.85,305,57.33,306.33A30.66,30.66,0,0,0,56,310.6c0,.43,2.38-3.75,8.15-.36s10.67,10.88,11,11.89,1.8,1,2,.58,16.87-24.43,18.65-27.65,22-46.59,23.31-49.51a6.07,6.07,0,0,1,7.12-3.72c2.91.81,40.81-14.53,40.81-14.53l12.09-9.77-43.79-16Z"></path><path class="cls-29" d="M363.7,126.27s-7.05-8-30-10.77c-23.15-2.86-27.53,4-36.47,13.63-3.53,3.83-29.1,57.15-48.8,66.25-14.75,6.82-41.5,10.36-54.47,17.21-8.37,4.42-11.5,28.37-17.27,29C139.47,246,133.18,259,133.18,259l38.16,36h93.45l87.69-70Z"></path><path class="cls-30" d="M82.15,312.38c-.45,1.71,2.86,5.38,6.76,7.7s8.24,5.28,11.3,3.07,12.67-13.52,16.58-17.85,24.49-23.86,27.87-29.67,10.56-20.69,11.83-23.23,3.38-2.74,8.55-1.9,24.23,2.65,38.94-1.4,46.71-3.24,53.48-7.13,11.69-17.44,11.69-17.44l-11.9-16-98.18,3.08s-14.67-1.7-21.49,5.38-17.25,33.6-20.86,39-19,29.48-21.88,33.86S84,305.41,82.15,312.38Z"></path><path class="cls-31" d="M164.86,213.77h53.33a4.32,4.32,0,0,0,4.32-4.32H164.86Z"></path><polygon class="cls-30" points="222.51 209.45 194.9 204.95 156.47 204.95 168.65 209.94 222.51 209.45"></polygon><path class="cls-32" d="M363.7,126.27s6.24,57.43,6.24,98.52-16.63,101.75-30.33,110.06S269.17,351,241.78,351c-19.69,0-53.55-7.07-71-11.05a22.26,22.26,0,0,1-15.61-13.17c-4.55-11-11.61-28.66-16.5-43.81,0,0,5.1-5.45,7.5-10,1.76-3.33,4.92-9.57,4.92-9.57,10.28,2.44,46.19,6.9,50.11,2S211,241,220.74,235.58s85.61-7.37,90.5-13.24S355,160.8,363.7,126.27Z"></path><path class="cls-33" d="M219.8,171.44s-14.71,14.11-18,17.11-15.7,6.83-20.73,6.83-15-.07-15-.07l1.84,10.15s33.46,2.37,36,1.82,24.24-9.13,24.24-9.13l10.89-18.46-3.87-8.25-7.39-5.29Z"></path><path class="cls-34" d="M290.45,124.45s7.08.86,16.86,5.92,11.62,21.74,11.73,27.26-3.87,17.78-5.21,18.42-22.58,39-30,43.91a48.54,48.54,0,0,1-15.21,6.46s-10.77-13.75-32.68-18.75l-21.9-5s14.66-6.55,15.87-12.93,3.77-9.7,2.24-11.11-3.06-3.77-6-5.3-6.84-1.65-6.6-2.13S230,153,239,147.39,290.45,124.45,290.45,124.45Z"></path><path class="cls-35" d="M313.83,176.05s-7,30.56-11.3,36.53-5.71,4.83-10.27,4.74-19.36,3.39-31.2,2.05-23.85-6.58-29.74-7.12a188,188,0,0,1-19.66-3.64c-2-.55-9.82-.91-11.41-3.11s-4.26-3.19-5.94-2.84-4.61,3.57-5,4.65-2,.43-2.07.17a39.16,39.16,0,0,1-.68-4.82c0-1.38.3-1.29.3-2s-1.21-.13-1.6.22-2.15,1.76-3.23,1.25-.6-4.65.56-6.07,5.26-5.56,8.19-6.42,5.64,2,7.4,1.38,8,.63,11.41,2.46,10.13,6.62,14.6,7.18,29.35.05,35.66-1,21.44-3.89,23.5-4.26,3.74-1.32,3.81-1.83-.85-7.63-.88-12.37c0-4.28,0-10.25,1.76-11.86s8.66-4.19,15.19-2.63S313.87,170.75,313.83,176.05Z"></path><path class="cls-36" d="M112.84,207.67l52,6.1a3.41,3.41,0,0,0,3.78-3.84l-7.81-59.72a8.18,8.18,0,0,0-8.1-7.12H110.24a8.18,8.18,0,0,0-8.1,9.24l7.72,52.45A3.43,3.43,0,0,0,112.84,207.67Z"></path><path class="cls-37" d="M286.16,114.84a14.73,14.73,0,0,0,1.77,5.57c1.37,2,2.82,3.74,2.52,4s-3.75.54-7,3.67-15,10.69-17.56,10.92-3-5.19-3.06-6-1-4.2-1-5.5S286.16,114.84,286.16,114.84Z"></path><path class="cls-30" d="M288.1,94.11s3.71-15.75-9.15-21.89-23.51,2.43-26.64,6.25-4.63,11-3.13,18.77,24.05,18.7,24.05,18.7Z"></path><path class="cls-27" d="M288.1,94.11s3.14.5,2.67,4.64-3.9,8-4.14,8.87,0,6.29-.47,7.22-10.76,14.53-20.33,14.76-15.13-18.67-15.25-22.69-1.83-16.18,0-20.38,8.3-5.72,14.69-5.3,11.27.59,13.71,2.27-.34,5.72-.17,6.73,3.95,1.59,4,3.44-1.08,6.7.43,6.7S284.62,93.79,288.1,94.11Z"></path></svg> 